<?xml version="1.0" encoding="UTF-8"?>
<svg id="Layer_1" data-name="Layer 1" xmlns="http://www.w3.org/2000/svg" viewBox="0 0 500 500">
  <defs>
    <style>
      .cls-1 {
        fill: none;
      }

      .cls-2 {
        fill: #c4c8c8;
      }

      .cls-3 {
        fill: #1f273d;
      }

      .cls-4 {
        fill: #f9f8e7;
      }
    </style>
  </defs>
  <path class="cls-3" d="M387.75,92.83s-.06,0-.08-.02c-.69-.13-1.4-.24-2.11-.31-.04,0-.08,0-.11,0-.72-.07-1.44-.1-2.18-.1-2.03,0-4,.26-5.87.74-.75.19-1.49.42-2.21.69-1.8.66-3.5,1.54-5.07,2.59-6.26,4.23-10.38,11.4-10.38,19.51v98.98c0,15.65-2.95,30.66-8.35,44.45-2.35-8.13-9.01-14.74-17.84-16.57-1.59-.33-3.18-.49-4.77-.49-11.03,0-20.71,7.83-23.03,18.62-.22.94-6.07,24.59-38.75,31.38-8.34,1.73-15.7,2.58-22.5,2.58-8.61,0-16.3-1.32-24.19-4.16-22.76-8.18-36.38-18.81-40.48-31.57-4.98-15.5,4.9-33.02,6.95-36.41,9.05-10.75,15.48-12.15,20.09-12.15,10.22,0,24.17,7.73,38.77,16.35,12.91,7.62,25.09,14.81,38.46,17.77,2.99.66,6.04,1,9.07,1,8.76,0,17.23-2.76,24.5-8,10.88-7.83,18.22-20.49,19.63-33.86,3.87-36.78-24.21-58.67-41.3-68.44-19.95-11.42-42.76-17.45-65.97-17.45-19.8,0-39.78,4.47-57.78,12.93-47.68,22.41-77.41,65.52-77.59,112.52-.14,36.97,14.34,71.26,40.77,96.55,26.01,24.89,62.19,39.62,101.9,41.49,1.11.08,3.22.19,6.22.19,5.69,0,14.82-.4,26.01-2.33,79.51-13.69,137.22-82.83,137.22-164.4v-98.98c0-11.44-8.21-21-19.05-23.1ZM290.6,197.61c-5.88-2.26-13.56-6.79-21.04-11.2-13.36-7.88-29.23-17.25-46.96-21.06,2.48-.21,4.96-.32,7.44-.32,15.02,0,29.75,3.89,42.59,11.24,16.77,9.59,18.1,17.57,17.97,21.34Z"/>
  <path class="cls-4" d="M240.86,414.21c-28.98,0-57.56-6.76-82.65-19.54-56.84-28.95-90.77-83.61-90.77-146.21,0-44.58,17-85.73,47.87-115.89,30.61-29.9,72.11-46.36,116.86-46.36l1.43.06c3.56.32,87.53,8.4,119.98,60.63,15.54,25.01,16.72,54.97,3.52,89.05-9.52,24.58-33.17,41.1-58.83,41.11-1.73,0-3.48-.08-5.21-.23-22.66-1.98-40.49-13.73-56.22-24.11-10.63-7.01-19.84-12.81-25-12.81-1.06,0-2.3.2-4.16,1.66-1.76,1.38-1.68,7.73,1.74,12.95,5.01,7.66,10.6,16.05,11.3,17.11l.07.11c2.39,3.58,3.24,7.87,2.39,12.09-.84,4.22-3.28,7.85-6.86,10.24-2.65,1.77-5.74,2.71-8.92,2.71-5.4,0-10.41-2.68-13.41-7.17,0,0-6.1-9.14-11.53-17.45-11-16.82-12-42.33,5.35-55.93,7.29-5.71,15.27-8.6,23.73-8.6,15.38,0,29.43,9.26,43.01,18.22,13.15,8.67,26.75,17.64,41.29,18.91.8.07,1.6.1,2.4.1,12.48,0,24.06-8.25,28.81-20.53,9.34-24.12,9.07-44.44-.82-60.39-13.31-21.46-41.59-33.11-62.98-39.11-12.24-3.44-24.77-5.18-37.24-5.18-19.41,0-37.81,4.12-54.69,12.25-44.9,21.62-71.7,65.2-71.7,116.57s26.67,93.83,73.18,117.52c20.59,10.49,44.12,16.03,68.05,16.03,14.9,0,29.95-2.1,44.71-6.23,31.78-8.91,74.65-29.33,98.39-76.06,10.08-19.83,15.4-42.97,15.4-66.91v-117c0-8.84,6.7-16.12,15.25-16.57.29-.01.57-.02.85-.02,8.88,0,16.1,7.22,16.1,16.1v117.49c0,28.99-6.53,57.17-18.9,81.5-29.03,57.14-80.42,81.83-118.41,92.48-17.59,4.93-35.56,7.43-53.4,7.43Z"/>
  <path class="cls-1" d="M290.6,197.61c.13-3.77-1.2-11.75-17.97-21.34-12.84-7.35-27.57-11.24-42.59-11.24-2.48,0-4.96.11-7.44.32,17.73,3.81,33.61,13.18,46.96,21.06,7.47,4.41,15.15,8.95,21.04,11.2Z"/>
  <path class="cls-1" d="M267,292.3c8.94-1.86,15.86-4.98,21.22-8.56-22.58-3.14-40.73-15.1-55.48-24.82-3.9-2.57-13.09-8.63-18.22-10.8.26.77.63,1.58,1.12,2.33,4.65,7.12,9.81,14.86,11.27,17.07l.19.28.03.04c5.07,7.8,4.89,17.54.35,25.04,5.48,1.35,11.03,2,17.02,2,6.8,0,14.17-.84,22.5-2.58Z"/>
  <path class="cls-4" d="M187.81,293.71s-1.36-2.04-3.31-4.98c-9.48-7.25-15.8-15.61-18.82-25.04-7.54-23.47,7.41-47.2,9.04-49.69,10.74-13.07,21.05-18.28,32.16-18.28,13.54,0,28.24,7.74,46.32,18.41,11.85,7,23.05,13.6,34.12,16.06,1.95.43,3.91.65,5.86.65,5.6,0,11.07-1.78,15.83-5.2,7.39-5.32,12.57-14.26,13.52-23.35,1.57-14.88-3.04-36.33-33.9-53.99-18-10.3-38.22-15.49-58.58-15.49-17.49,0-35.08,3.83-51.46,11.52-42.43,19.94-68.89,57.92-69.05,99.12-.26,67.93,53.85,119.7,128.67,123.14.62.05,2.48.16,5.35.16,5.07,0,13.3-.36,23.49-2.12,72.36-12.46,124.88-75.44,124.88-149.75v-98.98c0-4.79-3.88-8.67-8.67-8.67s-8.67,3.88-8.67,8.67v98.98c0,65.84-46.47,121.64-110.48,132.66-9.09,1.57-16.36,1.86-20.58,1.86-2.57,0-4.01-.11-4.04-.11l-.36-.02c-65.27-2.95-112.48-47.43-112.26-105.76.13-34.44,22.77-66.43,59.08-83.5,14.04-6.6,29.11-9.88,44.08-9.88,17.38,0,34.63,4.42,49.97,13.2,18.26,10.45,26.76,22.94,25.26,37.12-.44,4.19-3.02,8.64-6.41,11.09-1.8,1.3-3.67,1.94-5.64,1.94-.71,0-1.42-.08-2.16-.25-8.39-1.86-18.43-7.79-29.06-14.06-15.88-9.37-35.12-20.73-55.23-20.73-15.1,0-30.71,6.41-45.75,24.87l-.39.51c-.9,1.29-22,32.05-11.53,64.98,7.27,22.86,27.55,40.41,60.29,52.18,11.2,4.03,22.72,6.03,35.14,6.03,9.11,0,18.71-1.08,29.01-3.22,42.82-8.91,57.54-37.88,61.99-50.46-7.63,4.89-16.14,8.31-25.11,9.96-7.29,9.24-19.67,19.21-40.41,23.52-9.24,1.92-17.64,2.89-25.53,2.89-10.36,0-19.86-1.67-29.22-5.04-1-.36-1.95-.73-2.91-1.1-1.63.35-3.28.59-4.96.59-7.89,0-15.21-3.92-19.59-10.48Z"/>
  <path class="cls-3" d="M268.32,371.98c-10.68,1.84-19.35,2.22-24.75,2.22-3.09,0-5.16-.13-5.9-.18-26.13-1.2-49.86-8.08-69.92-19.34,2.73,1.63,5.55,3.19,8.44,4.67,19.55,9.96,41.92,15.22,64.67,15.22,14.23,0,28.59-2,42.7-5.96,30.3-8.49,71.13-27.89,93.67-72.07-22.92,38.94-61.92,67.34-108.92,75.44Z"/>
  <path class="cls-2" d="M83,306s42.71,111.41,161.86,111.21c0,0,127.47-10.51,168.14-103.21,0,0-66,82-170,86-59.26,2.28-103.59-14.46-160-94Z"/>
  <path class="cls-2" d="M266.13,122.99s-22.17-19.76-66.43-12.65c-31.79,5.11-60.13,22.72-79.79,48.22-14.02,18.19-26.74,42.48-23.91,68.68,0,0,10.05-58.17,61.79-93.94,29.48-20.38,56.83-27.39,108.33-10.31Z"/>
  <path class="cls-2" d="M264,221s-29.69-25.17-54-27c-17.55-1.32-32.64,8.63-40,24-5.21,10.88-9.56,22.94-4,42,0,0-1.31-34.34,23-52,13.85-10.06,42.89-6.88,75,13Z"/>
  <path class="cls-2" d="M108,266s11.86,105.21,131,105c0,0,114,1,157-121,0,0-44,105-152,109-59.26,2.19-104-33-136-93Z"/>
  <path class="cls-3" d="M415.47,91.78c-.41,0-.83.01-1.24.03-12.5.65-22.29,11.19-22.29,23.99v99.1c0,74.31-52.52,137.29-124.88,149.75-10.18,1.75-18.42,2.12-23.49,2.12-2.87,0-4.73-.12-5.35-.16-74.83-3.44-128.93-55.21-128.67-123.14.16-41.2,26.61-79.18,69.05-99.12,16.38-7.7,33.97-11.52,51.46-11.52,20.37,0,40.59,5.19,58.58,15.49,30.85,17.65,35.46,39.1,33.9,53.99-.96,9.08-6.14,18.03-13.52,23.35-4.76,3.42-10.23,5.2-15.83,5.2-1.94,0-3.9-.21-5.86-.65-11.08-2.46-22.27-9.06-34.12-16.06-18.08-10.67-32.79-18.41-46.32-18.41-11.1,0-21.42,5.21-32.16,18.28-1.63,2.49-16.58,26.22-9.04,49.69,3.03,9.42,9.34,17.78,18.82,25.04,1.95,2.94,3.28,4.94,3.31,4.98,4.37,6.56,11.7,10.48,19.59,10.48,1.72,0,3.41-.19,5.07-.55.93.36,1.85.72,2.81,1.06,9.36,3.37,18.86,5.04,29.22,5.04,7.89,0,16.29-.97,25.53-2.89,20.72-4.31,31.68-13.62,38.97-22.85,23.8-4.36,45.92-21.87,55.03-45.37,14.09-36.37,12.7-68.56-4.14-95.65-14.59-23.48-39.91-41.36-75.26-53.13-25.8-8.6-47.94-10.76-50.38-10.98l-.32-.03h-.33s-.77-.05-.77-.05l-.34-.02h-.34c-46.7,0-90.05,17.22-122.05,48.48-32.31,31.56-50.11,74.61-50.11,121.2,0,65.46,35.45,122.59,94.83,152.83,26.14,13.31,55.88,20.35,86.03,20.35,18.52,0,37.16-2.59,55.41-7.71,39.43-11.05,92.78-36.72,123.03-96.27,12.89-25.37,19.7-54.71,19.7-84.86v-117.49c0-12.98-10.56-23.53-23.53-23.53ZM298.26,284.48h0,0ZM298.08,285.62s0,0-.01.01c0,0,0,0,.01-.01ZM244.5,294.88c-6,0-11.54-.66-17.02-2,4.54-7.49,4.72-17.23-.36-25.04l-.03-.04-.19-.28c-1.47-2.2-6.62-9.95-11.27-17.07-.49-.75-.86-1.56-1.12-2.33,5.13,2.16,14.33,8.23,18.22,10.8,14.75,9.73,32.9,21.69,55.47,24.83-5.36,3.57-12.28,6.69-21.21,8.55-8.34,1.73-15.7,2.58-22.5,2.58ZM220.45,300.23s0,0,0,0c0,0,0,0,0,0h0s0,0,0,0ZM424.14,232.8c0,27.82-6.26,54.84-18.09,78.13-27.81,54.74-77.23,78.44-113.79,88.69-17.07,4.78-34.36,7.15-51.4,7.15-27.78,0-54.88-6.3-79.28-18.73-54.3-27.65-86.71-79.84-86.71-139.59,0-42.56,16.21-81.83,45.63-110.57,29.21-28.53,68.87-44.25,111.67-44.25l.77.04c3.41.3,83.82,8.04,114.33,57.15,14.24,22.92,15.21,50.65,2.9,82.44-8.49,21.92-29.41,36.36-51.9,36.36-1.52,0-3.03-.07-4.56-.2-20.79-1.81-37.78-13.02-52.78-22.91-13.67-9.02-22.2-14.04-29.09-14.04-3.15,0-5.95,1.05-8.74,3.24-5.87,4.6-4.69,15.54.11,22.87,5.37,8.22,11.4,17.26,11.41,17.27,2.66,3.98,1.58,9.37-2.4,12.02-1.48.99-3.15,1.46-4.8,1.46-2.8,0-5.55-1.36-7.22-3.86,0,0-6.08-9.12-11.49-17.4-9.16-14.01-10.28-35.05,3.71-46.01,6.4-5.01,12.79-7.02,19.15-7.02,13.15,0,26.18,8.59,38.92,17,13.92,9.18,28.32,18.68,44.74,20.11,1.02.09,2.04.13,3.05.13,15.42,0,29.84-10.03,35.74-25.28,10.23-26.42,9.75-48.96-1.44-66.99-14.41-23.23-43.85-35.77-67.28-42.35-12.85-3.61-26.08-5.45-39.25-5.45-19.92,0-39.72,4.23-57.91,12.98-45.83,22.07-75.91,67.85-75.91,123.27s28.15,99.14,77.24,124.14c21.94,11.17,46.35,16.84,71.42,16.84,15.47,0,31.18-2.16,46.71-6.51,33.22-9.31,78.05-30.71,103.01-79.85,10.6-20.87,16.21-45.17,16.21-70.28v-117c0-4.69,3.52-8.9,8.2-9.15.16,0,.31-.01.47-.01,4.79,0,8.67,3.88,8.67,8.67v117.49Z"/>
  <path class="cls-2" d="M309.24,283.74l16.76.26s-46.23,66.48-135.11,25.74c0,0-28.65-11.07-41.77-40.9,0,0,10.98,54.26,95.43,58.21,0,0,73.55,5.69,91-53.68,0,0-17.07,10.12-26.31,10.37Z"/>
</svg>